<mxfile host="65bd71144e">
    <diagram name="algorithm-flowchart" id="integer-to-roman-flow">
        <mxGraphModel dx="1684" dy="750" grid="1" gridSize="10" guides="1" tooltips="1" connect="1" arrows="1" fold="1" page="1" pageScale="1" pageWidth="827" pageHeight="1169" math="0" shadow="0">
            <root>
                <mxCell id="0"/>
                <mxCell id="1" parent="0"/>
                <mxCell id="start" value="" style="ellipse;whiteSpace=wrap;html=1;" parent="1" vertex="1">
                    <mxGeometry x="354" y="10" width="120" height="80" as="geometry"/>
                </mxCell>
                <mxCell id="start-text" value="start" style="text;html=1;align=center;verticalAlign=middle;whiteSpace=wrap;rounded=0;" parent="1" vertex="1">
                    <mxGeometry x="384" y="40" width="60" height="20" as="geometry"/>
                </mxCell>
                <mxCell id="input" value="" style="shape=parallelogram;perimeter=parallelogramPerimeter;whiteSpace=wrap;html=1;fixedSize=1;" parent="1" vertex="1">
                    <mxGeometry x="329" y="130" width="170" height="60" as="geometry"/>
                </mxCell>
                <mxCell id="input-text" value="int num;" style="text;html=1;align=center;verticalAlign=middle;whiteSpace=wrap;rounded=0;" parent="1" vertex="1">
                    <mxGeometry x="384" y="145" width="60" height="30" as="geometry"/>
                </mxCell>
                <mxCell id="init-result" value="" style="rounded=0;whiteSpace=wrap;html=1;" parent="1" vertex="1">
                    <mxGeometry x="329" y="230" width="170" height="60" as="geometry"/>
                </mxCell>
                <mxCell id="init-result-text" value="StringBuilder result = new StringBuilder()" style="text;html=1;align=center;verticalAlign=middle;whiteSpace=wrap;rounded=0;" parent="1" vertex="1">
                    <mxGeometry x="329" y="245" width="170" height="30" as="geometry"/>
                </mxCell>
                <mxCell id="arrow1" value="" style="endArrow=classic;html=1;exitX=0.5;exitY=1;exitDx=0;exitDy=0;" parent="1" source="start" target="input" edge="1">
                    <mxGeometry width="50" height="50" relative="1" as="geometry">
                        <mxPoint x="350" y="310" as="sourcePoint"/>
                        <mxPoint x="414" y="130" as="targetPoint"/>
                    </mxGeometry>
                </mxCell>
                <mxCell id="arrow2" value="" style="endArrow=classic;html=1;exitX=0.5;exitY=1;exitDx=0;exitDy=0;" parent="1" source="input" target="init-result" edge="1">
                    <mxGeometry width="50" height="50" relative="1" as="geometry">
                        <mxPoint x="350" y="310" as="sourcePoint"/>
                        <mxPoint x="400" y="260" as="targetPoint"/>
                    </mxGeometry>
                </mxCell>
                <mxCell id="check1000" value="" style="rhombus;whiteSpace=wrap;html=1;" parent="1" vertex="1">
                    <mxGeometry x="352" y="330" width="123" height="90" as="geometry"/>
                </mxCell>
                <mxCell id="check1000-text" value="num &gt;= 1000" style="text;html=1;align=center;verticalAlign=middle;whiteSpace=wrap;rounded=0;" parent="1" vertex="1">
                    <mxGeometry x="367" y="360" width="90" height="30" as="geometry"/>
                </mxCell>
                <mxCell id="addM" value="" style="rounded=0;whiteSpace=wrap;html=1;" parent="1" vertex="1">
                    <mxGeometry x="510" y="345" width="165" height="60" as="geometry"/>
                </mxCell>
                <mxCell id="addM-text" value="result.append(&quot;M&quot;)&#xa;num -= 1000" style="text;html=1;align=center;verticalAlign=middle;whiteSpace=wrap;rounded=0;" parent="1" vertex="1">
                    <mxGeometry x="510" y="360" width="165" height="30" as="geometry"/>
                </mxCell>
                <mxCell id="check900" value="" style="rhombus;whiteSpace=wrap;html=1;" parent="1" vertex="1">
                    <mxGeometry x="352" y="470" width="123" height="90" as="geometry"/>
                </mxCell>
                <mxCell id="check900-text" value="num &gt;= 900" style="text;html=1;align=center;verticalAlign=middle;whiteSpace=wrap;rounded=0;" parent="1" vertex="1">
                    <mxGeometry x="367" y="500" width="90" height="30" as="geometry"/>
                </mxCell>
                <mxCell id="arrow3" value="" style="endArrow=classic;html=1;exitX=0.5;exitY=1;exitDx=0;exitDy=0;entryX=0.5;entryY=0;entryDx=0;entryDy=0;" parent="1" source="init-result" target="check1000" edge="1">
                    <mxGeometry width="50" height="50" relative="1" as="geometry">
                        <mxPoint x="370" y="300" as="sourcePoint"/>
                        <mxPoint x="420" y="250" as="targetPoint"/>
                    </mxGeometry>
                </mxCell>
                <mxCell id="arrow4" value="" style="endArrow=classic;html=1;exitX=1;exitY=0.5;exitDx=0;exitDy=0;entryX=0;entryY=0.5;entryDx=0;entryDy=0;" parent="1" source="check1000" target="addM" edge="1">
                    <mxGeometry relative="1" as="geometry">
                        <mxPoint x="490" y="375" as="sourcePoint"/>
                        <mxPoint x="500" y="375" as="targetPoint"/>
                    </mxGeometry>
                </mxCell>
                <mxCell id="arrow4-label" value="True" style="edgeLabel;resizable=0;html=1;;align=center;verticalAlign=middle;" parent="arrow4" connectable="0" vertex="1">
                    <mxGeometry relative="1" as="geometry"/>
                </mxCell>
                <mxCell id="arrow5" value="" style="endArrow=classic;html=1;exitX=1;exitY=0.5;exitDx=0;exitDy=0;entryX=1;entryY=0.5;entryDx=0;entryDy=0;" parent="1" source="addM" target="check1000" edge="1">
                    <mxGeometry width="50" height="50" relative="1" as="geometry">
                        <mxPoint x="675" y="374.5" as="sourcePoint"/>
                        <mxPoint x="680" y="310" as="targetPoint"/>
                        <Array as="points">
                            <mxPoint x="710" y="375"/>
                            <mxPoint x="710" y="320"/>
                            <mxPoint x="520" y="320"/>
                        </Array>
                    </mxGeometry>
                </mxCell>
                <mxCell id="arrow6" value="" style="endArrow=classic;html=1;exitX=0.5;exitY=1;exitDx=0;exitDy=0;entryX=0.5;entryY=0;entryDx=0;entryDy=0;" parent="1" source="check1000" target="check900" edge="1">
                    <mxGeometry relative="1" as="geometry">
                        <mxPoint x="413.5" y="430" as="sourcePoint"/>
                        <mxPoint x="413.5" y="470" as="targetPoint"/>
                    </mxGeometry>
                </mxCell>
                <mxCell id="arrow6-label" value="False" style="edgeLabel;resizable=0;html=1;;align=center;verticalAlign=middle;" parent="arrow6" connectable="0" vertex="1">
                    <mxGeometry relative="1" as="geometry"/>
                </mxCell>
                <mxCell id="addCM" value="" style="rounded=0;whiteSpace=wrap;html=1;" parent="1" vertex="1">
                    <mxGeometry x="510" y="485" width="165" height="60" as="geometry"/>
                </mxCell>
                <mxCell id="addCM-text" value="result.append(&quot;CM&quot;)&#xa;num -= 900" style="text;html=1;align=center;verticalAlign=middle;whiteSpace=wrap;rounded=0;" parent="1" vertex="1">
                    <mxGeometry x="510" y="500" width="165" height="30" as="geometry"/>
                </mxCell>
                <mxCell id="arrow7" value="" style="endArrow=classic;html=1;exitX=1;exitY=0.5;exitDx=0;exitDy=0;entryX=0;entryY=0.5;entryDx=0;entryDy=0;" parent="1" source="check900" target="addCM" edge="1">
                    <mxGeometry relative="1" as="geometry">
                        <mxPoint x="475" y="515" as="sourcePoint"/>
                        <mxPoint x="510" y="515" as="targetPoint"/>
                    </mxGeometry>
                </mxCell>
                <mxCell id="arrow7-label" value="True" style="edgeLabel;resizable=0;html=1;;align=center;verticalAlign=middle;" parent="arrow7" connectable="0" vertex="1">
                    <mxGeometry relative="1" as="geometry"/>
                </mxCell>
                <mxCell id="arrow8" value="" style="endArrow=classic;html=1;exitX=1;exitY=0.5;exitDx=0;exitDy=0;entryX=1;entryY=0.5;entryDx=0;entryDy=0;" parent="1" source="addCM" target="check900" edge="1">
                    <mxGeometry width="50" height="50" relative="1" as="geometry">
                        <mxPoint x="675" y="514.5" as="sourcePoint"/>
                        <mxPoint x="520" y="460" as="targetPoint"/>
                        <Array as="points">
                            <mxPoint x="710" y="515"/>
                            <mxPoint x="710" y="460"/>
                            <mxPoint x="520" y="460"/>
                        </Array>
                    </mxGeometry>
                </mxCell>
                <mxCell id="moreChecks" value="" style="rounded=0;whiteSpace=wrap;html=1;" parent="1" vertex="1">
                    <mxGeometry x="328.5" y="600" width="170" height="60" as="geometry"/>
                </mxCell>
                <mxCell id="moreChecks-text" value="Remaining checks:&#xa;500, 400, 100, 90, 50, 40, 10, 9, 5, 4, 1" style="text;html=1;align=center;verticalAlign=middle;whiteSpace=wrap;rounded=0;" parent="1" vertex="1">
                    <mxGeometry x="328.5" y="615" width="170" height="30" as="geometry"/>
                </mxCell>
                <mxCell id="arrow9" value="" style="endArrow=classic;html=1;exitX=0.5;exitY=1;exitDx=0;exitDy=0;entryX=0.5;entryY=0;entryDx=0;entryDy=0;" parent="1" source="check900" target="moreChecks" edge="1">
                    <mxGeometry relative="1" as="geometry">
                        <mxPoint x="413.5" y="570" as="sourcePoint"/>
                        <mxPoint x="413.5" y="600" as="targetPoint"/>
                    </mxGeometry>
                </mxCell>
                <mxCell id="arrow9-label" value="False" style="edgeLabel;resizable=0;html=1;;align=center;verticalAlign=middle;" parent="arrow9" connectable="0" vertex="1">
                    <mxGeometry relative="1" as="geometry"/>
                </mxCell>
                <mxCell id="returnResult" value="" style="shape=parallelogram;perimeter=parallelogramPerimeter;whiteSpace=wrap;html=1;fixedSize=1;" parent="1" vertex="1">
                    <mxGeometry x="328.5" y="700" width="170" height="60" as="geometry"/>
                </mxCell>
                <mxCell id="returnResult-text" value="return result.toString()" style="text;html=1;align=center;verticalAlign=middle;whiteSpace=wrap;rounded=0;" parent="1" vertex="1">
                    <mxGeometry x="328.5" y="715" width="170" height="30" as="geometry"/>
                </mxCell>
                <mxCell id="arrow10" value="" style="endArrow=classic;html=1;exitX=0.5;exitY=1;exitDx=0;exitDy=0;entryX=0.5;entryY=0;entryDx=0;entryDy=0;" parent="1" source="moreChecks" target="returnResult" edge="1">
                    <mxGeometry width="50" height="50" relative="1" as="geometry">
                        <mxPoint x="370" y="650" as="sourcePoint"/>
                        <mxPoint x="420" y="600" as="targetPoint"/>
                    </mxGeometry>
                </mxCell>
                <mxCell id="end" value="" style="ellipse;whiteSpace=wrap;html=1;" parent="1" vertex="1">
                    <mxGeometry x="354" y="800" width="120" height="80" as="geometry"/>
                </mxCell>
                <mxCell id="end-text" value="end" style="text;html=1;align=center;verticalAlign=middle;whiteSpace=wrap;rounded=0;" parent="1" vertex="1">
                    <mxGeometry x="384" y="830" width="60" height="20" as="geometry"/>
                </mxCell>
                <mxCell id="arrow11" value="" style="endArrow=classic;html=1;exitX=0.5;exitY=1;exitDx=0;exitDy=0;entryX=0.5;entryY=0;entryDx=0;entryDy=0;" parent="1" source="returnResult" target="end" edge="1">
                    <mxGeometry width="50" height="50" relative="1" as="geometry">
                        <mxPoint x="370" y="750" as="sourcePoint"/>
                        <mxPoint x="420" y="700" as="targetPoint"/>
                    </mxGeometry>
                </mxCell>
            </root>
        </mxGraphModel>
    </diagram>
</mxfile>